<svg width="90" height="36" viewBox="0 0 90 36" fill="none" xmlns="http://www.w3.org/2000/svg">
<path d="M15 2.92334C6.75 2.92334 0 9.94958 0 18.5372C0 27.1248 6.75 34.1511 15 34.1511C23.25 34.1511 30 27.1248 30 18.5372C30 9.94958 23.25 2.92334 15 2.92334ZM8.85 24.3924C7.2 24.3924 5.85 22.9872 5.85 21.2696C5.85 19.5521 7.2 18.1469 8.85 18.1469C10.5 18.1469 11.85 19.5521 11.85 21.2696C11.85 22.9872 10.5 24.3924 8.85 24.3924ZM21.375 23.5336C20.025 24.3924 18.225 23.8459 17.4 22.4407L13.2 14.8679C12.375 13.4627 12.9 11.589 14.25 10.7303C15.6 9.87151 17.4 10.418 18.225 11.8232L22.425 19.396C23.25 20.8793 22.725 22.7529 21.375 23.5336Z" fill="#232E35"/>
<path d="M35.368 20V5.845H37.382L45.172 16.333L44.127 16.542V5.845H46.711V20H44.678L37.002 9.436L37.952 9.227V20H35.368ZM54.296 20.228C53.2827 20.228 52.358 19.9937 51.522 19.525C50.6987 19.0563 50.04 18.4167 49.546 17.606C49.0647 16.7953 48.824 15.8707 48.824 14.832C48.824 13.7933 49.0647 12.8687 49.546 12.058C50.04 11.2473 50.6987 10.6077 51.522 10.139C52.3453 9.67033 53.27 9.436 54.296 9.436C55.3093 9.436 56.2277 9.67033 57.051 10.139C57.8743 10.6077 58.5267 11.2473 59.008 12.058C59.502 12.856 59.749 13.7807 59.749 14.832C59.749 15.8707 59.502 16.7953 59.008 17.606C58.514 18.4167 57.8553 19.0563 57.032 19.525C56.2087 19.9937 55.2967 20.228 54.296 20.228ZM54.296 17.948C54.8533 17.948 55.341 17.815 55.759 17.549C56.1897 17.283 56.5253 16.9157 56.766 16.447C57.0193 15.9657 57.146 15.4273 57.146 14.832C57.146 14.224 57.0193 13.692 56.766 13.236C56.5253 12.7673 56.1897 12.4 55.759 12.134C55.341 11.8553 54.8533 11.716 54.296 11.716C53.726 11.716 53.2257 11.8553 52.795 12.134C52.3643 12.4 52.0223 12.7673 51.769 13.236C51.5283 13.692 51.408 14.224 51.408 14.832C51.408 15.4273 51.5283 15.9657 51.769 16.447C52.0223 16.9157 52.3643 17.283 52.795 17.549C53.2257 17.815 53.726 17.948 54.296 17.948ZM66.163 20.114C64.9977 20.114 64.092 19.7973 63.446 19.164C62.8127 18.518 62.496 17.6123 62.496 16.447V11.887H60.71V9.664H60.9C61.4067 9.664 61.7993 9.531 62.078 9.265C62.3567 8.999 62.496 8.61267 62.496 8.106V7.308H64.985V9.664H67.36V11.887H64.985V16.314C64.985 16.656 65.042 16.9473 65.156 17.188C65.2827 17.4287 65.4727 17.6123 65.726 17.739C65.992 17.8657 66.3277 17.929 66.733 17.929C66.8217 17.929 66.923 17.9227 67.037 17.91C67.1637 17.8973 67.284 17.8847 67.398 17.872V20C67.2207 20.0253 67.018 20.0507 66.79 20.076C66.562 20.1013 66.353 20.114 66.163 20.114ZM74.1089 20.228C73.0449 20.228 72.1139 19.9873 71.3159 19.506C70.5179 19.0247 69.8972 18.3723 69.4539 17.549C69.0105 16.7257 68.7889 15.8137 68.7889 14.813C68.7889 13.7743 69.0105 12.856 69.4539 12.058C69.9099 11.2473 70.5242 10.6077 71.2969 10.139C72.0822 9.67033 72.9562 9.436 73.9189 9.436C74.7295 9.436 75.4389 9.569 76.0469 9.835C76.6675 10.101 77.1932 10.4683 77.6239 10.937C78.0545 11.4057 78.3839 11.944 78.6119 12.552C78.8399 13.1473 78.9539 13.7933 78.9539 14.49C78.9539 14.6673 78.9412 14.851 78.9159 15.041C78.9032 15.231 78.8715 15.3957 78.8209 15.535H70.8409V13.635H77.4149L76.2369 14.528C76.3509 13.9453 76.3192 13.426 76.1419 12.97C75.9772 12.514 75.6985 12.153 75.3059 11.887C74.9259 11.621 74.4635 11.488 73.9189 11.488C73.3995 11.488 72.9372 11.621 72.5319 11.887C72.1265 12.1403 71.8162 12.5203 71.6009 13.027C71.3982 13.521 71.3222 14.1227 71.3729 14.832C71.3222 15.4653 71.4045 16.029 71.6199 16.523C71.8479 17.0043 72.1772 17.378 72.6079 17.644C73.0512 17.91 73.5579 18.043 74.1279 18.043C74.6979 18.043 75.1792 17.9227 75.5719 17.682C75.9772 17.4413 76.2939 17.1183 76.5219 16.713L78.5359 17.701C78.3332 18.195 78.0165 18.632 77.5859 19.012C77.1552 19.392 76.6422 19.6897 76.0469 19.905C75.4642 20.1203 74.8182 20.228 74.1089 20.228ZM84.7736 20.228C83.6716 20.228 82.709 19.9683 81.8856 19.449C81.075 18.917 80.5176 18.2013 80.2136 17.302L82.0756 16.409C82.3416 16.9917 82.709 17.4477 83.1776 17.777C83.659 18.1063 84.191 18.271 84.7736 18.271C85.2296 18.271 85.5906 18.1697 85.8566 17.967C86.1226 17.7643 86.2556 17.4983 86.2556 17.169C86.2556 16.9663 86.1986 16.8017 86.0846 16.675C85.9833 16.5357 85.8376 16.4217 85.6476 16.333C85.4703 16.2317 85.274 16.1493 85.0586 16.086L83.3676 15.611C82.4936 15.3577 81.8286 14.9713 81.3726 14.452C80.9293 13.9327 80.7076 13.3183 80.7076 12.609C80.7076 11.9757 80.866 11.4247 81.1826 10.956C81.512 10.4747 81.9616 10.101 82.5316 9.835C83.1143 9.569 83.7793 9.436 84.5266 9.436C85.502 9.436 86.3633 9.67033 87.1106 10.139C87.858 10.6077 88.39 11.2663 88.7066 12.115L86.8066 13.008C86.6293 12.5393 86.3316 12.1657 85.9136 11.887C85.4956 11.6083 85.027 11.469 84.5076 11.469C84.0896 11.469 83.7603 11.564 83.5196 11.754C83.279 11.944 83.1586 12.191 83.1586 12.495C83.1586 12.685 83.2093 12.8497 83.3106 12.989C83.412 13.1283 83.5513 13.2423 83.7286 13.331C83.9186 13.4197 84.134 13.502 84.3746 13.578L86.0276 14.072C86.8763 14.3253 87.5286 14.7053 87.9846 15.212C88.4533 15.7187 88.6876 16.3393 88.6876 17.074C88.6876 17.6947 88.523 18.2457 88.1936 18.727C87.8643 19.1957 87.4083 19.563 86.8256 19.829C86.243 20.095 85.559 20.228 84.7736 20.228Z" fill="#232E35"/>
<path d="M35.24 33V28.73H34.28V27.56H35.24V27.38C35.24 26.9667 35.3233 26.6167 35.49 26.33C35.6633 26.0367 35.9033 25.8133 36.21 25.66C36.5167 25.5067 36.88 25.43 37.3 25.43C37.38 25.43 37.4667 25.4367 37.56 25.45C37.66 25.4567 37.7433 25.4667 37.81 25.48V26.61C37.7433 26.5967 37.68 26.59 37.62 26.59C37.5667 26.5833 37.5167 26.58 37.47 26.58C37.1767 26.58 36.95 26.6467 36.79 26.78C36.63 26.9067 36.55 27.1067 36.55 27.38V27.56H37.76V28.73H36.55V33H35.24ZM41.1763 33.12C40.6429 33.12 40.1563 32.9967 39.7163 32.75C39.2829 32.5033 38.9363 32.1667 38.6763 31.74C38.4229 31.3133 38.2963 30.8267 38.2963 30.28C38.2963 29.7333 38.4229 29.2467 38.6763 28.82C38.9363 28.3933 39.2829 28.0567 39.7163 27.81C40.1496 27.5633 40.6363 27.44 41.1763 27.44C41.7096 27.44 42.1929 27.5633 42.6263 27.81C43.0596 28.0567 43.4029 28.3933 43.6563 28.82C43.9163 29.24 44.0463 29.7267 44.0463 30.28C44.0463 30.8267 43.9163 31.3133 43.6563 31.74C43.3963 32.1667 43.0496 32.5033 42.6163 32.75C42.1829 32.9967 41.7029 33.12 41.1763 33.12ZM41.1763 31.92C41.4696 31.92 41.7263 31.85 41.9463 31.71C42.1729 31.57 42.3496 31.3767 42.4763 31.13C42.6096 30.8767 42.6763 30.5933 42.6763 30.28C42.6763 29.96 42.6096 29.68 42.4763 29.44C42.3496 29.1933 42.1729 29 41.9463 28.86C41.7263 28.7133 41.4696 28.64 41.1763 28.64C40.8763 28.64 40.6129 28.7133 40.3863 28.86C40.1596 29 39.9796 29.1933 39.8463 29.44C39.7196 29.68 39.6563 29.96 39.6563 30.28C39.6563 30.5933 39.7196 30.8767 39.8463 31.13C39.9796 31.3767 40.1596 31.57 40.3863 31.71C40.6129 31.85 40.8763 31.92 41.1763 31.92ZM45.0397 33V27.56H46.2697V28.77L46.1697 28.59C46.2964 28.1833 46.493 27.9 46.7597 27.74C47.033 27.58 47.3597 27.5 47.7397 27.5H48.0597V28.66H47.5897C47.2164 28.66 46.9164 28.7767 46.6897 29.01C46.463 29.2367 46.3497 29.5567 46.3497 29.97V33H45.0397ZM51.9873 33V26.75H50.0573V25.55H55.2573V26.75H53.3573V33H51.9873ZM55.9772 33V25.43H57.2872V28.63L57.1072 28.44C57.2339 28.1133 57.4405 27.8667 57.7272 27.7C58.0205 27.5267 58.3605 27.44 58.7472 27.44C59.1472 27.44 59.5005 27.5267 59.8072 27.7C60.1205 27.8733 60.3639 28.1167 60.5372 28.43C60.7105 28.7367 60.7972 29.0933 60.7972 29.5V33H59.4872V29.81C59.4872 29.57 59.4405 29.3633 59.3472 29.19C59.2539 29.0167 59.1239 28.8833 58.9572 28.79C58.7972 28.69 58.6072 28.64 58.3872 28.64C58.1739 28.64 57.9839 28.69 57.8172 28.79C57.6505 28.8833 57.5205 29.0167 57.4272 29.19C57.3339 29.3633 57.2872 29.57 57.2872 29.81V33H55.9772ZM64.4849 33.12C63.9249 33.12 63.4349 32.9933 63.0149 32.74C62.5949 32.4867 62.2683 32.1433 62.0349 31.71C61.8016 31.2767 61.6849 30.7967 61.6849 30.27C61.6849 29.7233 61.8016 29.24 62.0349 28.82C62.2749 28.3933 62.5983 28.0567 63.0049 27.81C63.4183 27.5633 63.8783 27.44 64.3849 27.44C64.8116 27.44 65.1849 27.51 65.5049 27.65C65.8316 27.79 66.1083 27.9833 66.3349 28.23C66.5616 28.4767 66.7349 28.76 66.8549 29.08C66.9749 29.3933 67.0349 29.7333 67.0349 30.1C67.0349 30.1933 67.0283 30.29 67.0149 30.39C67.0083 30.49 66.9916 30.5767 66.9649 30.65H62.7649V29.65H66.2249L65.6049 30.12C65.6649 29.8133 65.6483 29.54 65.5549 29.3C65.4683 29.06 65.3216 28.87 65.1149 28.73C64.9149 28.59 64.6716 28.52 64.3849 28.52C64.1116 28.52 63.8683 28.59 63.6549 28.73C63.4416 28.8633 63.2783 29.0633 63.1649 29.33C63.0583 29.59 63.0183 29.9067 63.0449 30.28C63.0183 30.6133 63.0616 30.91 63.1749 31.17C63.2949 31.4233 63.4683 31.62 63.6949 31.76C63.9283 31.9 64.1949 31.97 64.4949 31.97C64.7949 31.97 65.0483 31.9067 65.2549 31.78C65.4683 31.6533 65.6349 31.4833 65.7549 31.27L66.8149 31.79C66.7083 32.05 66.5416 32.28 66.3149 32.48C66.0883 32.68 65.8183 32.8367 65.5049 32.95C65.1983 33.0633 64.8583 33.12 64.4849 33.12ZM68.028 33V27.56H69.258V28.77L69.158 28.59C69.2846 28.1833 69.4813 27.9 69.748 27.74C70.0213 27.58 70.348 27.5 70.728 27.5H71.048V28.66H70.578C70.2046 28.66 69.9046 28.7767 69.678 29.01C69.4513 29.2367 69.338 29.5567 69.338 29.97V33H68.028ZM73.4182 33.12C73.0382 33.12 72.7082 33.0567 72.4282 32.93C72.1482 32.8033 71.9315 32.6233 71.7782 32.39C71.6249 32.15 71.5482 31.8733 71.5482 31.56C71.5482 31.26 71.6149 30.9933 71.7482 30.76C71.8815 30.52 72.0882 30.32 72.3682 30.16C72.6482 30 73.0015 29.8867 73.4282 29.82L75.2082 29.53V30.53L73.6782 30.79C73.4182 30.8367 73.2249 30.92 73.0982 31.04C72.9715 31.16 72.9082 31.3167 72.9082 31.51C72.9082 31.6967 72.9782 31.8467 73.1182 31.96C73.2649 32.0667 73.4449 32.12 73.6582 32.12C73.9315 32.12 74.1715 32.0633 74.3782 31.95C74.5915 31.83 74.7549 31.6667 74.8682 31.46C74.9882 31.2533 75.0482 31.0267 75.0482 30.78V29.38C75.0482 29.1467 74.9549 28.9533 74.7682 28.8C74.5882 28.64 74.3482 28.56 74.0482 28.56C73.7682 28.56 73.5182 28.6367 73.2982 28.79C73.0849 28.9367 72.9282 29.1333 72.8282 29.38L71.7582 28.86C71.8649 28.5733 72.0315 28.3267 72.2582 28.12C72.4915 27.9067 72.7649 27.74 73.0782 27.62C73.3915 27.5 73.7315 27.44 74.0982 27.44C74.5449 27.44 74.9382 27.5233 75.2782 27.69C75.6182 27.85 75.8815 28.0767 76.0682 28.37C76.2615 28.6567 76.3582 28.9933 76.3582 29.38V33H75.1182V32.07L75.3982 32.05C75.2582 32.2833 75.0915 32.48 74.8982 32.64C74.7049 32.7933 74.4849 32.9133 74.2382 33C73.9915 33.08 73.7182 33.12 73.4182 33.12ZM77.569 35V27.56H78.799V28.64L78.679 28.37C78.8657 28.0767 79.119 27.85 79.439 27.69C79.759 27.5233 80.129 27.44 80.549 27.44C81.0623 27.44 81.5257 27.5667 81.939 27.82C82.3523 28.0733 82.679 28.4133 82.919 28.84C83.1657 29.2667 83.289 29.7467 83.289 30.28C83.289 30.8067 83.169 31.2867 82.929 31.72C82.689 32.1533 82.3623 32.4967 81.949 32.75C81.5357 32.9967 81.0657 33.12 80.539 33.12C80.1457 33.12 79.7823 33.0433 79.449 32.89C79.1223 32.73 78.8623 32.5033 78.669 32.21L78.879 31.95V35H77.569ZM80.389 31.92C80.689 31.92 80.9557 31.85 81.189 31.71C81.4223 31.57 81.6023 31.3767 81.729 31.13C81.8623 30.8833 81.929 30.6 81.929 30.28C81.929 29.96 81.8623 29.68 81.729 29.44C81.6023 29.1933 81.4223 29 81.189 28.86C80.9557 28.7133 80.689 28.64 80.389 28.64C80.1023 28.64 79.8423 28.71 79.609 28.85C79.3823 28.99 79.2023 29.1867 79.069 29.44C78.9423 29.6867 78.879 29.9667 78.879 30.28C78.879 30.6 78.9423 30.8833 79.069 31.13C79.2023 31.3767 79.3823 31.57 79.609 31.71C79.8423 31.85 80.1023 31.92 80.389 31.92ZM84.8501 35.21C84.7034 35.21 84.5601 35.1967 84.4201 35.17C84.2801 35.15 84.1534 35.1133 84.0401 35.06V33.96C84.1267 33.98 84.2301 34 84.3501 34.02C84.4767 34.04 84.5934 34.05 84.7001 34.05C85.0001 34.05 85.2167 33.98 85.3501 33.84C85.4901 33.7 85.6134 33.5167 85.7201 33.29L86.0801 32.45L86.0601 33.55L83.6901 27.56H85.1001L86.7601 31.98H86.2601L87.9101 27.56H89.3301L86.9601 33.55C86.8201 33.9033 86.6501 34.2033 86.4501 34.45C86.2501 34.6967 86.0167 34.8833 85.7501 35.01C85.4901 35.1433 85.1901 35.21 84.8501 35.21Z" fill="#FF4F5A"/>
<g clip-path="url(#clip0_413_225)">
<path d="M28 19C28.0018 20.3229 27.8001 21.6383 27.402 22.9L27.2547 23.3333C26.5552 25.3201 25.3799 27.1054 23.8313 28.5333C23.671 28.685 23.5107 28.828 23.3417 28.9666C21.0037 30.9261 18.0505 32 15 32C11.9495 32 8.99633 30.9261 6.65834 28.9666C6.48934 28.828 6.32901 28.685 6.16868 28.5333C4.62015 27.1054 3.44481 25.3201 2.74534 23.3333C2.68904 23.1903 2.64134 23.0473 2.59801 22.9C2.07064 21.2205 1.88932 19.4515 2.06501 17.7C2.07801 17.5526 2.09532 17.4096 2.11701 17.2666C2.33872 15.5854 2.89258 13.9651 3.74634 12.5C3.91534 12.201 4.09734 11.915 4.29232 11.6333H25.7077C25.9027 11.915 26.0847 12.201 26.2537 12.5C27.1074 13.9651 27.6613 15.5854 27.883 17.2666L27.935 17.7C27.9786 18.1319 28.0003 18.5658 28 19Z" fill="#E9EAF0"/>
<path d="M26.2534 12.5H3.74609C3.91509 12.201 4.09709 11.915 4.29207 11.6333H25.7074C25.9024 11.915 26.0844 12.201 26.2534 12.5Z" fill="#DFE0E6"/>
<path d="M2.11645 17.2666H27.8825L27.9345 17.6999H2.06445L2.11645 17.2666Z" fill="#C4CBD6"/>
<path d="M2.59766 22.8999H27.4017L27.2543 23.3332H2.74499L2.59766 22.8999Z" fill="#C4CBD6"/>
<path d="M23.8306 28.5334C23.6703 28.6851 23.51 28.8281 23.341 28.9668H6.65764C6.48864 28.8281 6.3283 28.6851 6.16797 28.5334H23.8306Z" fill="#C4CBD6"/>
<path d="M15.0006 6.00001C12.8923 5.99724 10.815 6.50887 8.94911 7.49053C7.0832 8.47219 5.48494 9.89424 4.29297 11.6333H25.7083C24.5163 9.89424 22.9181 8.47219 21.0522 7.49053C19.1862 6.50887 17.109 5.99724 15.0006 6.00001Z" fill="#FF4F5A"/>
</g>
<defs>
<clipPath id="clip0_413_225">
<rect width="26" height="26" fill="white" transform="translate(2 6)"/>
</clipPath>
</defs>
</svg>
